<svg xmlns="http://www.w3.org/2000/svg" width="31" height="22" fill="none"><g clip-path="url(#a)"><path fill="#000" d="m30.3 7.4-3.5.2-3.2-5-.6-.2c-.2 0-.5 0-.6.3l-3.2 4.9h-3.5c-.4 0-.7.3-.7.7v.2l1.9 6.8c.2.7.7 1 1.4 1h9.4c.7 0 1.2-.3 1.4-1l1.9-7v-.1c0-.4-.3-.8-.7-.8ZM23 4.3l2.2 3.2h-4.3L23 4.3Z"/></g><circle cx="10.5" cy="11.4" r="10.5" fill="#fff"/><path fill="#000" d="m11.5 10.7.7-.8.1-1c0-.5-.1-.9-.4-1.2-.3-.3-.8-.5-1.4-.5-.6 0-1 .2-1.3.5-.3.3-.5.7-.6 1.2l-.2.3H7.3V9a3.1 3.1 0 0 1 1.5-2.6c.5-.3 1-.5 1.7-.5s1.3.2 1.7.5c.5.2.9.6 1.1 1a3.4 3.4 0 0 1 0 3c-.1.5-.5.9-1 1.3l-3 3h4.5v1.1H7.2l-.1-.3v-.7l.3-.3 4.1-3.8Z"/><defs><clipPath id="a"><path fill="#fff" d="M15 2.4h16v14H15z"/></clipPath></defs></svg>